<svg width="32" height="32" viewBox="0 0 32 32" fill="none" xmlns="http://www.w3.org/2000/svg">
<path d="M11.9996 28.9999C13.1042 28.9999 13.9996 28.1045 13.9996 26.9999C13.9996 25.8954 13.1042 24.9999 11.9996 24.9999C10.8951 24.9999 9.99963 25.8954 9.99963 26.9999C9.99963 28.1045 10.8951 28.9999 11.9996 28.9999Z" fill="#2179c8"/>
<path d="M21.9996 28.9999C23.1042 28.9999 23.9996 28.1045 23.9996 26.9999C23.9996 25.8954 23.1042 24.9999 21.9996 24.9999C20.8951 24.9999 19.9996 25.8954 19.9996 26.9999C19.9996 28.1045 20.8951 28.9999 21.9996 28.9999Z" fill="#2179c8"/>
<path fill-rule="evenodd" clip-rule="evenodd" d="M27.311 8.526C27.4755 7.925 27.3495 7.281 26.9715 6.786C26.5935 6.291 26.0055 6 25.3825 6C19.3519 6 5.00073 6 5.00073 6L8.00024 17H23.4726C24.3745 17 25.1655 16.396 25.4023 15.526C25.89 13.737 26.7206 10.692 27.311 8.526Z" fill="#2179c8"/>
<path fill-rule="evenodd" clip-rule="evenodd" d="M12 24C10.344 24 9 25.344 9 27C9 28.656 10.344 30 12 30C13.656 30 15 28.656 15 27C15 25.344 13.656 24 12 24ZM22 24C20.344 24 19 25.344 19 27C19 28.656 20.344 30 22 30C23.656 30 25 28.656 25 27C25 25.344 23.656 24 22 24ZM12 26C12.552 26 13 26.448 13 27C13 27.552 12.552 28 12 28C11.448 28 11 27.552 11 27C11 26.448 11.448 26 12 26ZM22 26C22.552 26 23 26.448 23 27C23 27.552 22.552 28 22 28C21.448 28 21 27.552 21 27C21 26.448 21.448 26 22 26ZM17 2.96803L17.526 1.58003C17.722 1.06403 18.299 0.803033 18.815 0.999033L22.961 2.56904C23.477 2.76504 23.737 3.34205 23.541 3.85905L23.109 5.00004H25.382C26.317 5.00004 27.198 5.43603 27.766 6.17903C28.333 6.92203 28.522 7.88704 28.276 8.78904L26.367 15.789C26.011 17.095 24.825 18 23.472 18H9.28101L9.591 19.2431C9.703 19.6881 10.103 20 10.562 20H25C25.552 20 26 20.448 26 21C26 21.552 25.552 22 25 22H10.562C9.18501 22 7.985 21.063 7.651 19.728L7.03201 17.253L3.27899 4.00004H2C1.448 4.00004 1 3.55204 1 3.00004C1 2.44804 1.448 2.00004 2 2.00004C2 2.00004 2.70599 2.00004 3.27899 2.00004C4.13999 2.00004 4.904 2.55105 5.177 3.36805L5.72101 5.00004H10V2.00004C10 1.44804 10.448 1.00004 11 1.00004H16C16.552 1.00004 17 1.44804 17 2.00004V2.96803ZM26.346 8.26304L24.437 15.263C24.319 15.698 23.923 16 23.472 16H8.76401L6.30899 7.00004H25.381C25.693 7.00004 25.987 7.14505 26.176 7.39305C26.365 7.64105 26.428 7.96204 26.346 8.26304ZM15 5.00004H12V3.00004H15V5.00004ZM18.369 5.00004L19.042 3.22404L21.317 4.08503L20.97 5.00004H18.369Z" fill="#2179c8"/>
</svg>
