<svg width="40" height="40" viewBox="0 0 40 40" fill="none" xmlns="http://www.w3.org/2000/svg">
<g clip-path="url(#clip0_194_2853)">
<mask id="mask0_194_2853" style="mask-type:luminance" maskUnits="userSpaceOnUse" x="-8" y="0" width="56" height="40">
<path d="M44 0H-4C-6.20914 0 -8 1.79086 -8 4V36C-8 38.2091 -6.20914 40 -4 40H44C46.2091 40 48 38.2091 48 36V4C48 1.79086 46.2091 0 44 0Z" fill="white"/>
</mask>
<g mask="url(#mask0_194_2853)">
<path d="M47.9996 0H-8.00049V40H47.9996V0Z" fill="url(#paint0_linear_194_2853)"/>
<path fill-rule="evenodd" clip-rule="evenodd" d="M-8.00049 0H47.9996V2.66666H-8.00049V0ZM-8.00049 5.33334H47.9996V8H-8.00049V5.33334ZM-8.00049 10.6667H47.9996V13.3333H-8.00049V10.6667ZM-8.00049 16H47.9996V18.6667H-8.00049V16ZM-8.00049 21.3334H47.9996V24H-8.00049V21.3334ZM-8.00049 26.6666H47.9996V29.3334H-8.00049V26.6666ZM-8.00049 32H47.9996V34.6666H-8.00049V32ZM-8.00049 37.3334H47.9996V40H-8.00049V37.3334Z" fill="url(#paint1_linear_194_2853)"/>
<path d="M15.9996 0H-8.00049V18.6667H15.9996V0Z" fill="url(#paint2_linear_194_2853)"/>
<path fill-rule="evenodd" clip-rule="evenodd" d="M-4.00016 5.33341C-4.73654 5.33341 -5.3335 4.73645 -5.3335 4.00007C-5.3335 3.26371 -4.73654 2.66675 -4.00016 2.66675C-3.26378 2.66675 -2.66682 3.26371 -2.66682 4.00007C-2.66682 4.73645 -3.26378 5.33341 -4.00016 5.33341ZM1.33318 5.33341C0.596804 5.33341 -0.000156403 4.73645 -0.000156403 4.00007C-0.000156403 3.26371 0.596804 2.66675 1.33318 2.66675C2.06954 2.66675 2.6665 3.26371 2.6665 4.00007C2.6665 4.73645 2.06954 5.33341 1.33318 5.33341ZM6.6665 5.33341C5.93012 5.33341 5.33316 4.73645 5.33316 4.00007C5.33316 3.26371 5.93012 2.66675 6.6665 2.66675C7.40288 2.66675 7.99984 3.26371 7.99984 4.00007C7.99984 4.73645 7.40288 5.33341 6.6665 5.33341ZM11.9998 5.33341C11.2635 5.33341 10.6665 4.73645 10.6665 4.00007C10.6665 3.26371 11.2635 2.66675 11.9998 2.66675C12.7362 2.66675 13.3332 3.26371 13.3332 4.00007C13.3332 4.73645 12.7362 5.33341 11.9998 5.33341ZM-1.3335 8.00007C-2.06988 8.00007 -2.66682 7.40313 -2.66682 6.66675C-2.66682 5.93037 -2.06988 5.33341 -1.3335 5.33341C-0.597116 5.33341 -0.000156403 5.93037 -0.000156403 6.66675C-0.000156403 7.40313 -0.597116 8.00007 -1.3335 8.00007ZM3.99984 8.00007C3.26346 8.00007 2.6665 7.40313 2.6665 6.66675C2.6665 5.93037 3.26346 5.33341 3.99984 5.33341C4.73622 5.33341 5.33316 5.93037 5.33316 6.66675C5.33316 7.40313 4.73622 8.00007 3.99984 8.00007ZM9.33316 8.00007C8.5968 8.00007 7.99984 7.40313 7.99984 6.66675C7.99984 5.93037 8.5968 5.33341 9.33316 5.33341C10.0695 5.33341 10.6665 5.93037 10.6665 6.66675C10.6665 7.40313 10.0695 8.00007 9.33316 8.00007ZM11.9998 10.6667C11.2635 10.6667 10.6665 10.0698 10.6665 9.33341C10.6665 8.59703 11.2635 8.00007 11.9998 8.00007C12.7362 8.00007 13.3332 8.59703 13.3332 9.33341C13.3332 10.0698 12.7362 10.6667 11.9998 10.6667ZM6.6665 10.6667C5.93012 10.6667 5.33316 10.0698 5.33316 9.33341C5.33316 8.59703 5.93012 8.00007 6.6665 8.00007C7.40288 8.00007 7.99984 8.59703 7.99984 9.33341C7.99984 10.0698 7.40288 10.6667 6.6665 10.6667ZM1.33318 10.6667C0.596804 10.6667 -0.000156403 10.0698 -0.000156403 9.33341C-0.000156403 8.59703 0.596804 8.00007 1.33318 8.00007C2.06954 8.00007 2.6665 8.59703 2.6665 9.33341C2.6665 10.0698 2.06954 10.6667 1.33318 10.6667ZM-4.00016 10.6667C-4.73654 10.6667 -5.3335 10.0698 -5.3335 9.33341C-5.3335 8.59703 -4.73654 8.00007 -4.00016 8.00007C-3.26378 8.00007 -2.66682 8.59703 -2.66682 9.33341C-2.66682 10.0698 -3.26378 10.6667 -4.00016 10.6667ZM-1.3335 13.3334C-2.06988 13.3334 -2.66682 12.7364 -2.66682 12.0001C-2.66682 11.2637 -2.06988 10.6667 -1.3335 10.6667C-0.597116 10.6667 -0.000156403 11.2637 -0.000156403 12.0001C-0.000156403 12.7364 -0.597116 13.3334 -1.3335 13.3334ZM3.99984 13.3334C3.26346 13.3334 2.6665 12.7364 2.6665 12.0001C2.6665 11.2637 3.26346 10.6667 3.99984 10.6667C4.73622 10.6667 5.33316 11.2637 5.33316 12.0001C5.33316 12.7364 4.73622 13.3334 3.99984 13.3334ZM9.33316 13.3334C8.5968 13.3334 7.99984 12.7364 7.99984 12.0001C7.99984 11.2637 8.5968 10.6667 9.33316 10.6667C10.0695 10.6667 10.6665 11.2637 10.6665 12.0001C10.6665 12.7364 10.0695 13.3334 9.33316 13.3334ZM11.9998 16.0001C11.2635 16.0001 10.6665 15.4031 10.6665 14.6667C10.6665 13.9304 11.2635 13.3334 11.9998 13.3334C12.7362 13.3334 13.3332 13.9304 13.3332 14.6667C13.3332 15.4031 12.7362 16.0001 11.9998 16.0001ZM6.6665 16.0001C5.93012 16.0001 5.33316 15.4031 5.33316 14.6667C5.33316 13.9304 5.93012 13.3334 6.6665 13.3334C7.40288 13.3334 7.99984 13.9304 7.99984 14.6667C7.99984 15.4031 7.40288 16.0001 6.6665 16.0001ZM1.33318 16.0001C0.596804 16.0001 -0.000156403 15.4031 -0.000156403 14.6667C-0.000156403 13.9304 0.596804 13.3334 1.33318 13.3334C2.06954 13.3334 2.6665 13.9304 2.6665 14.6667C2.6665 15.4031 2.06954 16.0001 1.33318 16.0001ZM-4.00016 16.0001C-4.73654 16.0001 -5.3335 15.4031 -5.3335 14.6667C-5.3335 13.9304 -4.73654 13.3334 -4.00016 13.3334C-3.26378 13.3334 -2.66682 13.9304 -2.66682 14.6667C-2.66682 15.4031 -3.26378 16.0001 -4.00016 16.0001Z" fill="url(#paint3_linear_194_2853)"/>
</g>
</g>
<defs>
<linearGradient id="paint0_linear_194_2853" x1="19.9996" y1="0" x2="19.9996" y2="40" gradientUnits="userSpaceOnUse">
<stop stop-color="white"/>
<stop offset="1" stop-color="#F0F0F0"/>
</linearGradient>
<linearGradient id="paint1_linear_194_2853" x1="19.9996" y1="0" x2="19.9996" y2="40" gradientUnits="userSpaceOnUse">
<stop stop-color="#D02F44"/>
<stop offset="1" stop-color="#B12537"/>
</linearGradient>
<linearGradient id="paint2_linear_194_2853" x1="3.99952" y1="0" x2="3.99952" y2="18.6667" gradientUnits="userSpaceOnUse">
<stop stop-color="#46467F"/>
<stop offset="1" stop-color="#3C3C6D"/>
</linearGradient>
<linearGradient id="paint3_linear_194_2853" x1="3.99984" y1="2.66675" x2="3.99984" y2="16.0001" gradientUnits="userSpaceOnUse">
<stop stop-color="white"/>
<stop offset="1" stop-color="#F0F0F0"/>
</linearGradient>
<clipPath id="clip0_194_2853">
<rect width="40" height="40" rx="20" fill="white"/>
</clipPath>
</defs>
</svg>
