<?xml version="1.0" standalone="no"?>
<!DOCTYPE svg PUBLIC "-//W3C//DTD SVG 20010904//EN"
 "http://www.w3.org/TR/2001/REC-SVG-20010904/DTD/svg10.dtd">
<svg version="1.0" xmlns="http://www.w3.org/2000/svg"
 width="32.000000pt" height="32.000000pt" viewBox="0 0 32.000000 32.000000"
 preserveAspectRatio="xMidYMid meet">

<g transform="translate(0.000000,32.000000) scale(0.100000,-0.100000)"
fill="#000000" stroke="none">
<path d="M9 264 c-11 -14 -10 -18 6 -30 16 -12 21 -12 34 0 12 12 12 18 1 30
-16 20 -24 20 -41 0z"/>
<path d="M90 265 c-10 -12 -10 -18 0 -30 11 -13 34 -15 119 -13 106 3 106 3
106 28 0 25 0 25 -106 28 -85 2 -108 0 -119 -13z"/>
<path d="M10 174 c-11 -12 -10 -18 3 -32 16 -15 18 -15 34 0 13 14 14 20 3 32
-7 9 -16 16 -20 16 -4 0 -13 -7 -20 -16z"/>
<path d="M90 175 c-10 -12 -10 -18 0 -30 11 -13 34 -15 119 -13 106 3 106 3
106 28 0 25 0 25 -106 28 -85 2 -108 0 -119 -13z"/>
<path d="M15 86 c-19 -14 -19 -16 -2 -33 16 -16 18 -16 34 0 15 15 16 19 2 32
-13 13 -17 13 -34 1z"/>
<path d="M90 85 c-10 -12 -10 -18 0 -30 11 -13 34 -15 119 -13 106 3 106 3
106 28 0 25 0 25 -106 28 -85 2 -108 0 -119 -13z"/>
</g>
</svg>
