<svg xmlns="http://www.w3.org/2000/svg" viewBox="0 0 146.42 108.61"><defs><style>.cls-1{fill:none;stroke:#2179c8;stroke-linecap:round;stroke-miterlimit:10;stroke-width:5px;}</style></defs><g id="Layer_2" data-name="Layer 2"><g id="PT1"><g id="POSTS"><path class="cls-1" d="M143.92,12.55V26.39H23.21V12.55a10.05,10.05,0,0,1,10-10H133.87A10.05,10.05,0,0,1,143.92,12.55Z"/><line class="cls-1" x1="67.42" y1="45.87" x2="120.41" y2="45.87"/><line class="cls-1" x1="67.42" y1="69.37" x2="120.41" y2="69.37"/><line class="cls-1" x1="129.58" y1="15.26" x2="129.58" y2="15.26"/><line class="cls-1" x1="121.38" y1="15.26" x2="121.38" y2="15.26"/><line class="cls-1" x1="113.19" y1="15.26" x2="113.19" y2="15.26"/><path class="cls-1" d="M23.21,26.39V77.81a10.2,10.2,0,0,0,.39,2.78,10,10,0,0,0,9.66,7.27H133.87a10.05,10.05,0,0,0,10-10V26.39Zm20.7,50A7,7,0,1,1,51,69.36,7,7,0,0,1,43.91,76.42Zm0-23.5a7,7,0,0,1-7-7.05A7.12,7.12,0,0,1,37,44.64a7,7,0,0,1,13.88,0,7,7,0,0,1-7,8.28Z"/><path class="cls-1" d="M23.21,20.75V44.64H2.5V30.8a10.05,10.05,0,0,1,10.05-10Z"/><path class="cls-1" d="M123.21,87.86v8.2a10.05,10.05,0,0,1-10,10H12.55a10.05,10.05,0,0,1-10-10V44.64H23.21V77.81a10.2,10.2,0,0,0,.39,2.78,10,10,0,0,0,9.66,7.27Z"/><path class="cls-1" d="M51,69.36a7.07,7.07,0,1,1-2.36-5.24A7,7,0,0,1,51,69.36Z"/><path class="cls-1" d="M51,45.87a7.07,7.07,0,1,1-.11-1.23A7.06,7.06,0,0,1,51,45.87Z"/><line class="cls-1" x1="46.71" y1="87.62" x2="99.7" y2="87.62"/></g></g></g></svg>