<svg width="69" height="66" viewBox="0 0 69 66" fill="none" xmlns="http://www.w3.org/2000/svg">
<path d="M66 32.6898C66.0002 33.1803 65.8559 33.6599 65.5853 34.0679C65.3147 34.4758 64.93 34.7939 64.4798 34.9817C64.0296 35.1695 63.5342 35.2187 63.0562 35.1231C62.5782 35.0274 62.1391 34.7913 61.7945 34.4444C61.4499 34.0975 61.2153 33.6556 61.1203 33.1745C61.0252 32.6934 61.0741 32.1947 61.2607 31.7415C61.4473 31.2884 61.7633 30.9011 62.1686 30.6288C62.5739 30.3564 63.0504 30.2112 63.5377 30.2114C64.1907 30.2117 64.8168 30.4729 65.2785 30.9377C65.7402 31.4024 65.9997 32.0326 66 32.6898ZM57.0903 37.0766L60.1128 36.0916C60.0772 34.7817 59.9133 33.4785 59.6235 32.201L56.4505 31.9979C56.3845 31.7627 56.3135 31.5288 56.2352 31.2949C56.157 31.0609 56.0762 30.8307 55.9906 30.6054L58.4101 28.5234C57.8803 27.3267 57.2351 26.1852 56.4836 25.1155L53.4757 26.1484C53.1712 25.7631 52.8531 25.3912 52.5167 25.0404L53.9589 22.1901C53.014 21.2892 51.9831 20.4842 50.8813 19.7868L48.4937 21.9008C48.068 21.6636 47.6325 21.4444 47.1873 21.2433L47.4319 18.0533C46.2172 17.5825 44.9588 17.2348 43.6755 17.0154L42.3532 19.724L42.2737 19.8841C41.8028 19.8274 41.327 19.7917 40.8499 19.7794L40.7778 19.6563L39.8322 16.731C39.4066 16.7416 38.9805 16.7675 38.554 16.8085L38.3815 16.8245C37.7838 16.8861 37.1848 16.9756 36.5846 17.093C36.3804 17.1336 36.1749 17.1767 35.9731 17.2247L35.7712 20.4197C35.5364 20.4849 35.3052 20.5563 35.0728 20.6351C34.8404 20.7139 34.6104 20.7952 34.3841 20.8814L32.3194 18.4473C31.1297 18.9786 29.9955 19.6277 28.9336 20.3852L29.9598 23.4115C29.5757 23.7168 29.2076 24.0406 28.859 24.378L26.0187 22.9288C25.1232 23.8799 24.3231 24.9175 23.6298 26.0265L25.73 28.4298C25.4952 28.8595 25.2762 29.2917 25.0768 29.7448L21.9063 29.4985C21.4396 30.7205 21.0935 31.9857 20.8727 33.2759L23.7252 34.6856C23.6677 35.1781 23.6335 35.6607 23.62 36.1544C23.62 36.1987 23.62 36.2418 23.62 36.2861C23.68 36.3255 23.7423 36.3637 23.7998 36.4006C23.9564 34.3603 24.5518 32.3786 25.5448 30.5928C26.5378 28.8071 27.9048 27.2601 29.5508 26.0589C31.1969 24.8578 33.0828 24.0312 35.0778 23.6366C37.0727 23.242 39.1291 23.2887 41.1043 23.7734C41.5906 23.8932 42.07 24.0395 42.5404 24.2118L42.6529 24.2548C43.1541 24.4417 43.6442 24.6576 44.1207 24.9012C45.0141 25.3583 45.8563 25.9102 46.6332 26.5473C46.802 26.684 46.9671 26.8268 47.1286 26.9721C48.5382 28.235 49.6799 29.7715 50.4854 31.4892C51.2909 33.207 51.7435 35.0708 51.8162 36.9689C51.8889 38.867 51.58 40.7603 50.9082 42.5354C50.2365 44.3104 49.2155 45.9307 47.9066 47.2991C46.5978 48.6674 45.0279 49.7557 43.2911 50.4987C41.5543 51.2417 39.6864 51.6241 37.7992 51.6229C35.9121 51.6218 34.0446 51.2372 32.3087 50.4921C30.5728 49.747 29.0042 48.6569 27.6969 47.2869H27.3997C27.6549 47.6005 27.9208 47.9038 28.1972 48.1968L26.7563 51.047C27.7 51.9489 28.7305 52.754 29.8326 53.4503L32.2203 51.3363C32.646 51.574 33.0826 51.7943 33.5279 51.9938L33.2771 55.1851C34.4924 55.6544 35.7506 56.0021 37.0336 56.223L38.4366 53.3531C38.9185 53.4097 39.4053 53.4454 39.8958 53.4565L40.8744 56.5C42.1751 56.4666 43.4693 56.3017 44.7372 56.0075L44.9391 52.815C45.1739 52.7485 45.4051 52.6759 45.6375 52.5971C45.8699 52.5183 46.0999 52.437 46.3262 52.3509L48.3946 54.7825C49.5845 54.2517 50.7187 53.6025 51.7804 52.8446L50.7541 49.817C51.1382 49.5117 51.5052 49.1895 51.855 48.8505L54.6867 50.3021C55.5836 49.3514 56.3851 48.3138 57.0793 47.2044L54.979 44.8011C55.2139 44.3727 55.4328 43.9393 55.6322 43.4862L58.8027 43.7386C59.2679 42.5147 59.6129 41.2479 59.8327 39.9564L56.9851 38.5405C57.0421 38.057 57.0772 37.5691 57.0903 37.0766ZM45.4699 31.2628C45.7014 30.0845 45.8165 28.8861 45.8136 27.685L43.0186 26.8601C42.9991 26.5006 42.966 26.1435 42.922 25.7877C42.8547 25.7569 42.7875 25.7261 42.719 25.699C42.8717 28.0089 42.4055 30.3177 41.3689 32.3843C40.3323 34.4508 38.7635 36.1993 36.8262 37.447C34.8889 38.6947 32.6543 39.396 30.3557 39.4774C28.0572 39.5589 25.7791 39.0176 23.7595 37.9101L23.6579 37.8547C21.9747 36.918 20.5237 35.6102 19.4135 34.0293C17.6793 31.5751 16.8503 28.5887 17.0694 25.5852C17.2885 22.5816 18.542 19.7491 20.6137 17.5762C22.6854 15.4032 25.4454 14.026 28.4179 13.682C31.3904 13.338 34.389 14.0488 36.8966 15.6918C37.0189 15.6721 37.1302 15.6537 37.2488 15.6364C37.1265 15.5404 37.0128 15.4481 36.8917 15.3582L37.7479 12.556C36.755 11.8901 35.6987 11.3254 34.5945 10.8705L32.7671 13.1543C32.3447 13.0066 31.9169 12.8769 31.4839 12.7653L31.2148 9.84487C30.0439 9.611 28.8527 9.49551 27.659 9.50013L26.837 12.3159C26.3906 12.3393 25.9441 12.3824 25.5013 12.4489L24.1411 9.85349C22.9713 10.0905 21.8278 10.4435 20.7272 10.9074L21.0415 13.8253C20.8397 13.9214 20.6415 14.0223 20.4434 14.1294C20.2452 14.2366 20.052 14.3461 19.8611 14.4619L17.6178 12.588C16.6261 13.2562 15.7022 14.0212 14.8595 14.8719L16.2576 17.4438C15.9575 17.7812 15.6746 18.1304 15.4087 18.4916L12.626 17.6298C11.9645 18.6294 11.4031 19.6926 10.9502 20.8038L13.2204 22.6432C13.0736 23.0684 12.9448 23.4985 12.8339 23.9335L9.93249 24.2068C9.70094 25.3826 9.5854 26.5786 9.58755 27.7773L12.3838 28.6034C12.4082 29.0516 12.4527 29.4998 12.5171 29.9479L9.93983 31.3182C10.1759 32.4955 10.5266 33.6465 10.9869 34.7545L13.8858 34.4406C13.9825 34.6413 14.0816 34.8419 14.1892 35.0402C14.2968 35.2384 14.4045 35.4341 14.5182 35.6262L12.6578 37.8855C13.3216 38.8834 14.0816 39.8129 14.9268 40.6606L17.482 39.2546C17.8172 39.555 18.1642 39.8394 18.523 40.1078L17.6667 42.91C18.6606 43.5754 19.7172 44.1404 20.8214 44.5968L22.6476 42.3116C22.8531 42.3831 23.0598 42.4495 23.2665 42.5136C23.4732 42.5776 23.7081 42.6367 23.9307 42.6995L24.0971 44.4983L24.201 45.6211C24.3808 45.6568 24.5594 45.6901 24.738 45.7184C25.2897 45.8119 25.8475 45.8772 26.4065 45.9191L26.552 45.9277C26.952 45.9548 27.3532 45.9683 27.7556 45.9658L27.8939 45.4918L28.5764 43.1525C29.0204 43.1292 29.4669 43.0848 29.9109 43.0196L31.2699 45.6113C32.4395 45.3758 33.5827 45.0231 34.6826 44.5586L34.3707 41.6406C34.5713 41.5446 34.7682 41.4424 34.9676 41.3365C35.167 41.2306 35.359 41.1186 35.5498 41.0029L37.7944 42.8768C38.7864 42.2103 39.7096 41.4456 40.5502 40.5941L39.1534 38.0209C39.4543 37.6836 39.7356 37.3351 40.0023 36.9744L42.785 37.8362C43.446 36.8367 44.0073 35.774 44.4608 34.6634L42.1905 32.8228C42.3373 32.3976 42.4658 31.9675 42.5758 31.5325L45.4699 31.2628ZM6.46351 30.2114C5.97622 30.2114 5.49988 30.3569 5.09473 30.6294C4.68958 30.9019 4.37383 31.2892 4.18741 31.7424C4.00099 32.1956 3.95227 32.6942 4.04743 33.1752C4.14258 33.6563 4.37733 34.0981 4.72198 34.4448C5.06663 34.7916 5.5057 35.0276 5.98366 35.1232C6.46161 35.2187 6.95698 35.1694 7.40711 34.9816C7.85723 34.7937 8.24189 34.4757 8.51244 34.0678C8.78299 33.6598 8.92727 33.1803 8.92702 32.6898C8.9267 32.0324 8.66701 31.402 8.20505 30.9372C7.74308 30.4725 7.11666 30.2114 6.46351 30.2114Z" fill="url(#paint0_linear_194_2089)"/>
<defs>
<linearGradient id="paint0_linear_194_2089" x1="19.8416" y1="22.2431" x2="49.8598" y2="42.9996" gradientUnits="userSpaceOnUse">
<stop stop-color="#C31F3B"/>
<stop offset="1" stop-color="#2E3192"/>
</linearGradient>
</defs>
</svg>
