<svg width="801" height="390" viewBox="0 0 801 390" fill="none" xmlns="http://www.w3.org/2000/svg">
<g clip-path="url(#clip0_380_1348)">
<path d="M237.644 183.735C238.932 185.042 239.943 186.658 240.537 188.515C242.594 194.885 239.1 201.724 232.727 203.784C158.683 227.668 76.3295 239.673 57.4767 239.537C44.4662 239.444 32.2623 234.331 23.1046 225.118C23.0629 225.076 23.0127 225.025 22.9634 224.975C13.8763 215.759 8.92969 203.59 9.02431 190.691C9.07146 183.993 14.5387 178.602 21.2344 178.652C27.9329 178.699 33.3209 184.164 33.2737 190.862C33.2282 197.328 35.9091 203.613 40.3071 208.023C44.9182 212.658 51.0749 215.233 57.6512 215.283C71.43 215.384 150.592 204.796 225.276 180.695C229.787 179.241 234.525 180.573 237.644 183.735Z" fill="#707487"/>
<path d="M134.431 234.4L251.306 352.932C264.853 366.671 283.304 374.467 302.599 374.603L773.152 377.916C786.546 378.011 797.479 367.23 797.573 353.836L799.792 38.5746C799.886 25.1794 789.106 14.2468 775.712 14.1535L305.16 10.842C285.865 10.7052 267.307 18.2404 253.567 31.7886L135.036 148.662C111.192 172.169 110.922 210.558 134.431 234.4ZM229.302 155.819C249.394 155.96 265.565 172.361 265.422 192.451C265.281 212.542 248.881 228.713 228.79 228.571C208.699 228.428 192.527 212.028 192.67 191.938C192.813 171.849 209.213 155.676 229.302 155.819Z" fill="#FFC37C"/>
<path d="M773.514 326.445L302.963 323.134C283.668 322.998 265.217 315.203 251.669 301.464L134.795 182.932C129.731 177.796 125.995 171.904 123.135 165.714C112.4 188.117 115.986 215.693 134.432 234.401L251.306 352.932C264.853 366.671 283.304 374.467 302.599 374.603L773.152 377.916C786.546 378.011 797.479 367.23 797.573 353.836L797.935 302.367C797.843 315.758 786.908 326.54 773.514 326.445Z" fill="#FF8C54"/>
<path d="M237.626 183.718C240.744 186.88 242.008 191.636 240.486 196.13C238.34 202.47 231.454 205.868 225.109 203.724C150.791 178.571 71.7779 166.877 57.9943 166.781C51.4142 166.735 45.2237 169.227 40.5459 173.792C35.8997 178.339 33.3161 184.398 33.2706 190.86C33.2252 197.321 35.9061 203.61 40.304 208.021C44.9151 212.655 51.0718 215.231 57.6481 215.281C64.3467 215.328 69.7347 220.792 69.6875 227.491C69.6452 234.185 64.176 239.577 57.4774 239.53C44.4641 239.444 32.2621 234.331 23.1034 225.117C23.0617 225.075 23.0115 225.024 22.9622 224.974C13.8751 215.758 8.92851 203.59 9.02312 190.691C9.10968 177.717 14.2867 165.562 23.5867 156.458C32.8732 147.385 45.147 142.433 58.1669 142.534C77.015 142.658 159.209 155.822 232.892 180.754C234.737 181.378 236.346 182.419 237.626 183.718Z" fill="#7F8499"/>
<path d="M341.587 232.709L342.468 107.621L391.819 107.968C401.265 108.035 409.316 109.781 415.97 113.208C422.665 116.594 427.742 121.374 431.2 127.547C434.7 133.68 436.42 140.879 436.362 149.145C436.304 157.452 434.462 164.585 430.836 170.546C427.211 176.465 421.988 180.989 415.165 184.117C408.384 187.246 400.188 188.776 390.578 188.709L357.535 188.476L357.685 167.221L386.452 167.423C391.502 167.459 395.7 166.796 399.049 165.435C402.398 164.074 404.896 162.015 406.545 159.258C408.233 156.501 409.092 153.066 409.121 148.953C409.151 144.8 408.341 141.292 406.691 138.43C405.082 135.568 402.593 133.393 399.224 131.903C395.896 130.373 391.687 129.59 386.597 129.554L368.762 129.429L368.034 232.895L341.587 232.709ZM409.54 176.259L440.228 233.403L411.033 233.197L381.017 176.059L409.54 176.259ZM495.201 235.622C485.55 235.554 477.257 233.542 470.322 229.583C463.428 225.585 458.133 219.969 454.437 212.735C450.742 205.461 448.93 196.877 448.999 186.982C449.067 177.332 451 168.875 454.797 161.613C458.595 154.351 463.908 148.708 470.736 144.684C477.606 140.66 485.642 138.681 494.844 138.745C501.033 138.789 506.788 139.827 512.108 141.86C517.469 143.852 522.131 146.837 526.094 150.815C530.097 154.793 533.197 159.783 535.395 165.784C537.593 171.745 538.663 178.716 538.607 186.697L538.557 193.843L459.339 193.285L459.452 177.161L514.178 177.546C514.204 173.8 513.413 170.475 511.805 167.573C510.197 164.67 507.953 162.395 505.073 160.745C502.235 159.056 498.922 158.198 495.135 158.171C491.185 158.143 487.677 159.035 484.61 160.846C481.584 162.616 479.206 165.022 477.474 168.064C475.743 171.065 474.843 174.418 474.777 178.124L474.669 193.454C474.636 198.096 475.463 202.113 477.149 205.505C478.876 208.897 481.322 211.52 484.485 213.375C487.648 215.229 491.408 216.172 495.765 216.203C498.656 216.223 501.305 215.834 503.714 215.037C506.122 214.239 508.187 213.032 509.908 211.416C511.63 209.799 512.947 207.813 513.859 205.458L537.913 207.215C536.651 212.988 534.111 218.02 530.294 222.309C526.518 226.559 521.648 229.863 515.687 232.224C509.766 234.544 502.937 235.677 495.201 235.622ZM581.654 180.159L581.272 234.396L555.253 234.213L555.914 140.397L580.711 140.571L580.595 157.124L581.694 157.131C583.809 151.69 587.321 147.398 592.23 144.256C597.139 141.074 603.074 139.507 610.037 139.556C616.552 139.602 622.223 141.067 627.048 143.952C631.873 146.836 635.611 150.934 638.261 156.247C640.912 161.518 642.211 167.799 642.16 175.087L641.74 234.822L615.72 234.638L616.108 179.546C616.189 173.805 614.755 169.316 611.805 166.078C608.856 162.799 604.775 161.142 599.563 161.105C596.061 161.081 592.961 161.812 590.263 163.3C587.606 164.788 585.514 166.972 583.987 169.852C582.501 172.692 581.723 176.128 581.654 180.159ZM712.808 141.501L712.67 161.046L656.173 160.649L656.311 141.104L712.808 141.501ZM669.295 118.717L695.314 118.9L694.699 206.364C694.682 208.766 695.035 210.642 695.759 211.991C696.482 213.299 697.494 214.222 698.793 214.761C700.133 215.3 701.679 215.575 703.43 215.588C704.651 215.596 705.873 215.503 707.096 215.308C708.32 215.072 709.257 214.896 709.91 214.778L713.866 234.169C712.56 234.567 710.724 235.022 708.359 235.535C705.993 236.088 703.12 236.414 699.739 236.513C693.467 236.713 687.976 235.839 683.266 233.892C678.597 231.945 674.973 228.947 672.396 224.898C669.818 220.848 668.571 215.75 668.655 209.601L669.295 118.717Z" fill="white"/>
</g>
<defs>
<clipPath id="clip0_380_1348">
<rect width="800" height="388.62" fill="white" transform="translate(800.241 389.551) rotate(180)"/>
</clipPath>
</defs>
</svg>
