<svg xmlns="http://www.w3.org/2000/svg" viewBox="0 0 138.65 122.27"><defs><style>.cls-1,.cls-2{fill:none;stroke:white;stroke-miterlimit:10;stroke-width:6px;}.cls-1{stroke-linecap:round;}</style></defs><g id="Layer_2" data-name="Layer 2"><g id="PT1"><g id="RENTALS"><path class="cls-1" d="M136.15,34.18v75.46A10.13,10.13,0,0,1,126,119.77H33.63A10.12,10.12,0,0,1,23.5,109.64v-8.26H75.6a10.72,10.72,0,0,0,10.48-10.5V24H126A10.14,10.14,0,0,1,136.15,34.18Z"/><path class="cls-1" d="M86.08,7.83V90.55a10.72,10.72,0,0,1-10.29,10.83A10.5,10.5,0,0,1,65.1,90.88V81a5.33,5.33,0,0,0-5.33-5.32H12.83V7.83A5.33,5.33,0,0,1,18.16,2.5H80.75A5.33,5.33,0,0,1,86.08,7.83Z"/><path class="cls-1" d="M75.59,101.38H12.83A10.5,10.5,0,0,1,2.5,90.88V81A5.32,5.32,0,0,1,7.83,75.7H59.94a5.16,5.16,0,0,1,5.16,5.16v10A10.5,10.5,0,0,0,75.59,101.38Z"/><rect class="cls-1" x="86.08" y="24.04" width="12.87" height="25.83"/><circle class="cls-2" cx="49.36" cy="38.41" r="23.76"/><line class="cls-1" x1="49.46" y1="22.31" x2="49.46" y2="38.1"/><line class="cls-1" x1="49.46" y1="38.1" x2="56.41" y2="44.25"/></g></g></g></svg>