<svg width="30" height="34" viewBox="0 0 30 34" fill="none" xmlns="http://www.w3.org/2000/svg">
<path d="M14.9999 5.33211C17.3869 5.33211 19.676 6.17496 21.3639 7.67526C23.0517 9.17555 23.9999 11.2104 23.9999 13.3321C23.9999 16.6139 24.7417 19.0714 25.7037 20.8786C26.9327 23.1876 27.5472 24.3421 27.513 24.6058C27.4732 24.9136 27.4224 24.9983 27.1694 25.1779C26.9525 25.3321 25.874 25.3321 23.7169 25.3321H6.2828C4.12567 25.3321 3.04712 25.3321 2.8303 25.1779C2.57739 24.9983 2.52657 24.9136 2.4867 24.6058C2.45252 24.3421 3.06704 23.1876 4.29609 20.8786C5.25804 19.0714 5.99985 16.6139 5.99985 13.3321C5.99985 11.2104 6.94807 9.17555 8.63589 7.67526C10.3237 6.17496 12.6129 5.33211 14.9999 5.33211ZM14.9999 5.33211V1.99878M10.5899 30.3321C11.7669 31.3709 13.313 32.0014 15.0065 32.0014C16.6999 32.0014 18.246 31.3709 19.4232 30.3321" stroke="url(#paint0_linear_200_3041)" stroke-width="3" stroke-linecap="round" stroke-linejoin="round"/>
<defs>
<linearGradient id="paint0_linear_200_3041" x1="2.48535" y1="17.0001" x2="27.5144" y2="17.0001" gradientUnits="userSpaceOnUse">
<stop stop-color="#2179C8"/>
<stop offset="1" stop-color="#C31F3B"/>
</linearGradient>
</defs>
</svg>
