<?xml version="1.0" encoding="iso-8859-1"?>
<!-- Uploaded to: SVG Repo, www.svgrepo.com, Generator: SVG Repo Mixer Tools -->
<svg height="800px" width="800px" version="1.1" id="Layer_1" xmlns="http://www.w3.org/2000/svg" xmlns:xlink="http://www.w3.org/1999/xlink" 
	 viewBox="0 0 451.277 451.277" xml:space="preserve">
<circle style="fill:#E05B49;" cx="225.638" cy="225.638" r="225.638"/>
<path style="opacity:0.1;enable-background:new    ;" d="M134.225,134.232c-50.396,50.396-50.429,132.405,0,182.834l130.743,130.743
	c93.083-16.37,166.463-89.748,182.839-182.829L317.059,134.232C266.63,83.803,184.621,83.837,134.225,134.232z"/>
<circle style="fill:#EBF0F3;" cx="225.638" cy="225.638" r="121.037"/>
<path style="fill:#64798A;" d="M225.638,96.355c-71.287,0-129.283,57.997-129.283,129.283s57.996,129.283,129.283,129.283
	c71.286,0,129.283-57.997,129.283-129.283S296.925,96.355,225.638,96.355z M105.543,230.175h55.649
	c0.321,19.557,2.709,37.877,6.756,54.147h-47.166C111.718,268.192,106.275,249.78,105.543,230.175z M230.175,157.883v-51.999
	c16.738,3.106,31.634,23.155,40.92,51.999H230.175z M273.747,166.955c4.304,16.222,6.915,34.673,7.268,54.147h-50.84v-54.147
	H273.747z M221.102,105.884v51.999h-40.918C189.469,129.039,204.364,108.99,221.102,105.884z M221.102,166.955v54.147h-50.838
	c0.353-19.474,2.964-37.925,7.268-54.147H221.102z M161.192,221.102h-55.649c0.732-19.605,6.175-38.018,15.238-54.147h47.166
	C163.901,183.225,161.513,201.545,161.192,221.102z M170.264,230.175h50.838v54.147h-43.571
	C173.228,268.099,170.617,249.648,170.264,230.175z M221.102,293.394v51.999c-16.738-3.106-31.633-23.155-40.918-51.999H221.102z
	 M230.175,345.393v-51.999h40.92C261.809,322.238,246.913,342.287,230.175,345.393z M230.175,284.322v-54.147h50.84
	c-0.353,19.474-2.964,37.925-7.268,54.147H230.175z M290.087,230.175h55.647c-0.732,19.605-6.176,38.018-15.238,54.147h-47.164
	C287.377,268.052,289.766,249.732,290.087,230.175z M290.087,221.102c-0.322-19.557-2.71-37.877-6.756-54.147h47.164
	c9.063,16.129,14.506,34.542,15.238,54.147H290.087z M324.87,157.883h-44.013c-6.427-21.315-15.853-38.412-27.191-49.122
	C283.053,115.809,308.277,133.657,324.87,157.883z M197.611,108.761c-11.338,10.711-20.763,27.807-27.19,49.122h-44.015
	C143,133.657,168.224,115.809,197.611,108.761z M126.406,293.394h44.015c6.427,21.315,15.852,38.411,27.19,49.122
	C168.224,335.468,143,317.62,126.406,293.394z M253.666,342.516c11.338-10.71,20.764-27.807,27.191-49.122h44.013
	C308.277,317.62,283.053,335.468,253.666,342.516z"/>
</svg>