<svg width="20" height="21" viewBox="0 0 20 21" fill="none" xmlns="http://www.w3.org/2000/svg">
<g clip-path="url(#clip0_41_617)">
<path fill-rule="evenodd" clip-rule="evenodd" d="M14.1993 13.6713C15.2261 12.3235 15.8401 10.6138 15.8401 8.75359C15.8401 4.40236 12.4807 0.875 8.33673 0.875C4.1927 0.875 0.833313 4.40236 0.833313 8.75359C0.833313 13.1048 4.1927 16.6322 8.33673 16.6322C10.1084 16.6322 11.7366 15.9875 13.0203 14.9093L17.7434 19.8686C18.069 20.2105 18.5969 20.2105 18.9225 19.8686C19.2481 19.5268 19.2481 18.9725 18.9225 18.6306L14.1993 13.6713ZM8.33673 14.8901C5.10898 14.8901 2.49237 12.1427 2.49237 8.75359C2.49237 5.36445 5.10898 2.61701 8.33673 2.61701C11.5645 2.61701 14.1811 5.36445 14.1811 8.75359C14.1811 12.1427 11.5645 14.8901 8.33673 14.8901Z" fill="#727272"/>
</g>
<defs>
<clipPath id="clip0_41_617">
<rect width="20" height="21" fill="white"/>
</clipPath>
</defs>
</svg>
