<svg width="30" height="30" viewBox="0 0 30 30" fill="none" xmlns="http://www.w3.org/2000/svg">
<rect width="30" height="30" rx="10" fill="#FFC3C3"/>
<path d="M19.1667 19.1667H22.5001M20.8334 17.5V20.8333" stroke="#C31F3B" stroke-linecap="round" stroke-linejoin="round"/>
<path d="M15.8333 17.5H11.6667C10.5616 17.5 9.50179 17.939 8.72039 18.7204C7.93899 19.5018 7.5 20.5616 7.5 21.6667C7.5 21.8877 7.5878 22.0996 7.74408 22.2559C7.90036 22.4122 8.11232 22.5 8.33333 22.5H17.5" stroke="#C31F3B" stroke-linecap="round" stroke-linejoin="round"/>
<path d="M14.1666 14.1667C16.0075 14.1667 17.4999 12.6743 17.4999 10.8333C17.4999 8.99238 16.0075 7.5 14.1666 7.5C12.3256 7.5 10.8333 8.99238 10.8333 10.8333C10.8333 12.6743 12.3256 14.1667 14.1666 14.1667Z" stroke="#C31F3B" stroke-linecap="round" stroke-linejoin="round"/>
</svg>
