<svg width="380" height="380" viewBox="0 0 380 380" fill="none" xmlns="http://www.w3.org/2000/svg">
<path fill-rule="evenodd" clip-rule="evenodd" d="M380.006 190C380.006 195.166 379.789 200.288 379.385 205.352L356.498 210.416C355.429 219.193 353.694 227.759 351.332 236.063L370.442 249.622C367.35 258.982 363.56 268.022 359.117 276.677L336.018 272.58C331.703 280.198 326.812 287.439 321.396 294.257L333.867 314.104C327.465 321.517 320.493 328.425 313.035 334.776L293.291 322.17C286.44 327.535 279.155 332.369 271.504 336.633L275.435 359.75C266.754 364.129 257.689 367.862 248.303 370.883L234.878 351.665C226.562 353.969 217.983 355.647 209.2 356.645L203.982 379.494C199.366 379.827 194.699 380.006 189.994 380.006C184.827 380.006 179.706 379.789 174.641 379.385L169.59 356.504C160.813 355.435 152.247 353.7 143.944 351.338L130.384 370.448C121.024 367.356 111.985 363.566 103.329 359.123L107.426 336.024C99.8079 331.709 92.5608 326.818 85.749 321.402L65.9027 333.873C58.4891 327.471 51.5813 320.499 45.2305 313.041L57.8361 293.297C52.4712 286.447 47.6376 279.161 43.3739 271.511L20.2561 275.442C15.8771 266.761 12.1447 257.695 9.12292 248.31L28.3419 234.885C26.0371 226.569 24.3598 217.99 23.3611 209.206L0.512164 203.988C0.179257 199.373 0 194.706 0 190C0 184.834 0.211268 179.712 0.620999 174.648L23.4955 169.597C24.5647 160.819 26.2996 152.254 28.662 143.95L9.55186 130.391C12.644 121.031 16.4341 111.991 20.8771 103.335L43.9757 107.433C48.2907 99.8143 53.1818 92.5672 58.5979 85.7554L46.1268 65.9091C52.5288 58.4955 59.5006 51.5877 66.959 45.2369L86.7029 57.8425C93.5531 52.4776 100.839 47.644 108.489 43.3803L104.558 20.2625C113.239 15.8835 122.305 12.1511 131.69 9.12932L145.115 28.3419C153.431 26.0371 162.01 24.3598 170.794 23.3611L176.012 0.512164C180.627 0.179257 185.294 0 190 0C195.173 0 200.288 0.211268 205.365 0.614597L210.416 23.4955C219.193 24.5647 227.759 26.2996 236.063 28.662L249.622 9.55186C258.982 12.644 268.022 16.4341 276.677 20.8771L272.58 43.9757C280.198 48.2907 287.446 53.1818 294.257 58.5979L314.104 46.1268C321.517 52.5288 328.425 59.5006 334.776 66.959L322.17 86.7029C327.535 93.5531 332.369 100.839 336.633 108.489L359.75 104.558C364.129 113.239 367.862 122.305 370.883 131.69L351.665 145.115C353.969 153.431 355.647 162.01 356.645 170.794L379.494 176.012C379.827 180.627 380.006 185.294 380.006 190ZM190 327C265.663 327 327 265.663 327 190C327 114.337 265.663 53 190 53C114.337 53 53 114.337 53 190C53 265.663 114.337 327 190 327Z" fill="white"/>
</svg>
