<svg width="594" height="594" viewBox="0 0 594 594" fill="none" xmlns="http://www.w3.org/2000/svg">
<g clip-path="url(#clip0_6_709)">
<path d="M592.6 320.76C593.23 312.85 593.57 304.85 593.57 296.78C593.57 289.43 593.29 282.14 592.77 274.93L557.08 266.78C555.52 253.06 552.9 239.66 549.3 226.67L579.32 205.7C574.6 191.04 568.77 176.88 561.93 163.32L525.82 169.46C519.16 157.51 511.61 146.13 503.23 135.43L522.92 104.59C513 92.94 502.21 82.05 490.63 72.05L459.63 91.53C448.99 83.07 437.67 75.43 425.77 68.69L432.17 32.61C418.65 25.67 404.53 19.75 389.91 14.92L368.73 44.77C355.76 41.08 342.38 38.37 328.67 36.7L320.78 0.96C312.85 0.33 304.86 0 296.78 0C289.43 0 282.14 0.28 274.93 0.8L266.78 36.49C253.06 38.05 239.66 40.67 226.67 44.27L205.7 14.26C191.04 18.98 176.88 24.81 163.32 31.65L169.46 67.76C157.51 74.42 146.13 81.97 135.43 90.35L104.59 70.66C92.94 80.58 82.05 91.37 72.05 102.95L91.53 133.95C83.07 144.59 75.43 155.91 68.69 167.81L32.61 161.41C25.67 174.93 19.75 189.05 14.92 203.67L44.77 224.85C41.08 237.82 38.37 251.2 36.7 264.91L0.97 272.8C0.33 280.71 0 288.71 0 296.78C0 304.13 0.28 311.42 0.8 318.63L36.49 326.78C38.05 340.5 40.67 353.9 44.27 366.89L14.25 387.86C18.97 402.52 24.8 416.68 31.64 430.24L67.75 424.1C74.41 436.05 81.96 447.43 90.34 458.13L70.65 488.97C80.57 500.62 91.36 511.51 102.94 521.51L133.94 502.03C144.58 510.49 155.9 518.13 167.8 524.87L161.4 560.95C174.92 567.89 189.04 573.81 203.66 578.64L224.84 548.79C237.81 552.48 251.19 555.19 264.9 556.86L272.79 592.6C280.7 593.23 288.7 593.57 296.77 593.57C304.12 593.57 311.41 593.29 318.62 592.77L326.77 557.08C340.49 555.52 353.89 552.9 366.88 549.3L387.85 579.32C402.51 574.6 416.67 568.77 430.23 561.93L424.09 525.82C436.04 519.16 447.42 511.61 458.12 503.23L488.96 522.92C500.61 513 511.5 502.21 521.5 490.63L502.02 459.63C510.48 448.98 518.12 437.67 524.86 425.77L560.94 432.17C567.88 418.65 573.8 404.53 578.63 389.91L548.78 368.73C552.47 355.76 555.18 342.38 556.85 328.67L592.6 320.76Z" fill="blue"/>
</g>
<defs>
<clipPath id="clip0_6_709">
<rect width="593.56" height="593.56" fill="blue"/>
</clipPath>
</defs>
</svg>
