<svg width="800" height="389" viewBox="0 0 800 389" fill="none" xmlns="http://www.w3.org/2000/svg">
<g clip-path="url(#clip0_379_1367)">
<path d="M237.402 182.805C238.691 184.112 239.702 185.727 240.296 187.585C242.353 193.955 238.859 200.793 232.486 202.854C158.442 226.737 76.0882 238.743 57.2355 238.606C44.225 238.514 32.0211 233.401 22.8634 224.188C22.8217 224.146 22.7714 224.095 22.7222 224.045C13.6351 214.829 8.68848 202.66 8.7831 189.761C8.83025 183.063 14.2975 177.672 20.9932 177.722C27.6917 177.769 33.0797 183.233 33.0325 189.932C32.987 196.398 35.6679 202.683 40.0659 207.093C44.677 211.727 50.8337 214.303 57.41 214.353C71.1888 214.454 150.35 203.865 225.035 179.765C229.546 178.311 234.284 179.642 237.402 182.805Z" fill="#707487"/>
<path d="M134.19 233.47L251.065 352.002C264.612 365.741 283.063 373.537 302.358 373.672L772.91 376.986C786.305 377.081 797.238 366.3 797.331 352.906L799.551 37.6444C799.645 24.2493 788.865 13.3166 775.471 13.2233L304.919 9.91183C285.624 9.77506 267.066 17.3102 253.325 30.8584L134.795 147.732C110.95 171.239 110.681 209.627 134.19 233.47ZM229.061 154.888C249.153 155.03 265.324 171.431 265.181 191.52C265.039 211.612 248.639 227.783 228.549 227.64C208.458 227.498 192.285 211.098 192.429 191.008C192.572 170.919 208.972 154.746 229.061 154.888Z" fill="#9FD2FF"/>
<path d="M773.273 325.515L302.722 322.204C283.427 322.067 264.975 314.273 251.428 300.533L134.553 182.002C129.49 176.866 125.754 170.974 122.894 164.784C112.159 187.186 115.745 214.763 134.191 233.471L251.065 352.002C264.612 365.741 283.063 373.537 302.358 373.672L772.91 376.986C786.305 377.081 797.238 366.3 797.331 352.906L797.694 301.437C797.601 314.828 786.667 325.61 773.273 325.515Z" fill="#3CA3FF"/>
<path d="M237.385 182.788C240.503 185.95 241.767 190.706 240.245 195.199C238.099 201.54 231.213 204.938 224.868 202.794C150.55 177.641 71.5367 165.947 57.7531 165.851C51.173 165.805 44.9825 168.297 40.3047 172.862C35.6585 177.409 33.0749 183.468 33.0294 189.929C32.9839 196.391 35.6648 202.68 40.0628 207.091C44.6739 211.725 50.8306 214.301 57.4069 214.351C64.1055 214.398 69.4935 219.862 69.4463 226.561C69.404 233.255 63.9348 238.647 57.2362 238.6C44.2229 238.514 32.0209 233.401 22.8622 224.187C22.8205 224.145 22.7703 224.094 22.721 224.044C13.6339 214.828 8.6873 202.659 8.78191 189.761C8.86847 176.786 14.0455 164.632 23.3455 155.528C32.632 146.455 44.9057 141.503 57.9257 141.603C76.7738 141.727 158.968 154.891 232.65 179.824C234.496 180.448 236.105 181.489 237.385 182.788Z" fill="#7F8499"/>
<path d="M354.497 237.352L355.48 97.7189L411.387 98.1125C421.66 98.1848 430.217 99.7678 437.059 102.861C443.901 105.955 449.03 110.219 452.447 115.652C455.863 121.04 457.547 127.234 457.498 134.233C457.459 139.688 456.335 144.475 454.124 148.596C451.913 152.672 448.89 156.014 445.053 158.624C441.262 161.188 436.931 162.998 432.06 164.055L432.05 165.419C437.367 165.683 442.333 167.218 446.95 170.024C451.612 172.829 455.38 176.742 458.254 181.763C461.128 186.738 462.541 192.657 462.493 199.52C462.441 206.929 460.553 213.53 456.831 219.322C453.154 225.069 447.735 229.599 440.576 232.912C433.416 236.226 424.609 237.845 414.154 237.772L354.497 237.352ZM384.189 213.424L408.256 213.593C416.483 213.651 422.494 212.125 426.289 209.016C430.084 205.86 432 201.646 432.037 196.374C432.064 192.51 431.156 189.095 429.314 186.127C427.471 183.16 424.828 180.823 421.386 179.117C417.988 177.411 413.926 176.541 409.199 176.508L384.45 176.334L384.189 213.424ZM384.59 156.357L406.476 156.511C410.521 156.54 414.117 155.86 417.263 154.473C420.455 153.041 422.97 151.013 424.806 148.39C426.689 145.767 427.643 142.614 427.669 138.933C427.704 133.887 425.937 129.807 422.368 126.69C418.845 123.575 413.81 121.994 407.265 121.948L384.834 121.79L384.59 156.357ZM548.357 194.124L548.78 133.99L577.825 134.194L577.088 238.919L549.202 238.722L549.336 219.7L548.245 219.692C545.838 225.812 541.872 230.716 536.346 234.405C530.865 238.093 524.193 239.91 516.33 239.855C509.33 239.805 503.182 238.171 497.886 234.952C492.591 231.733 488.464 227.181 485.505 221.296C482.592 215.412 481.141 208.379 481.153 200.197L481.623 133.517L510.668 133.721L510.235 195.22C510.237 201.402 511.861 206.3 515.109 209.914C518.356 213.527 522.73 215.354 528.229 215.392C531.729 215.417 535.008 214.645 538.064 213.075C541.121 211.46 543.592 209.069 545.478 205.9C547.41 202.732 548.369 198.806 548.357 194.124ZM617.975 278.48C614.293 278.454 610.841 278.135 607.618 277.521C604.44 276.953 601.809 276.23 599.724 275.352L606.422 253.717C609.823 254.786 612.888 255.376 615.614 255.486C618.386 255.596 620.777 254.977 622.786 253.627C624.841 252.278 626.517 249.971 627.813 246.708L629.548 242.288L592.739 134.299L623.284 134.514L644.424 211.574L645.515 211.582L667.942 134.828L698.691 135.045L657.171 250.801C655.177 256.423 652.483 261.314 649.09 265.472C645.742 269.676 641.515 272.896 636.408 275.133C631.301 277.415 625.157 278.531 617.975 278.48Z" fill="white"/>
</g>
<defs>
<clipPath id="clip0_379_1367">
<rect width="800" height="388.62" fill="white" transform="translate(800 388.621) rotate(180)"/>
</clipPath>
</defs>
</svg>
