<svg width="69" height="65" viewBox="0 0 69 65" fill="none" xmlns="http://www.w3.org/2000/svg">
<path d="M66 32.1898C66.0002 32.6803 65.8559 33.1599 65.5853 33.5679C65.3147 33.9758 64.93 34.2939 64.4798 34.4817C64.0296 34.6695 63.5342 34.7187 63.0562 34.6231C62.5782 34.5274 62.1391 34.2913 61.7945 33.9444C61.4499 33.5975 61.2153 33.1556 61.1203 32.6745C61.0252 32.1934 61.0741 31.6947 61.2607 31.2415C61.4473 30.7884 61.7633 30.4011 62.1686 30.1288C62.5739 29.8564 63.0504 29.7112 63.5377 29.7114C64.1907 29.7117 64.8168 29.9729 65.2785 30.4377C65.7402 30.9024 65.9997 31.5326 66 32.1898ZM57.0903 36.5766L60.1128 35.5916C60.0772 34.2817 59.9133 32.9785 59.6235 31.701L56.4505 31.4979C56.3845 31.2627 56.3135 31.0288 56.2352 30.7949C56.157 30.5609 56.0762 30.3307 55.9906 30.1054L58.4101 28.0234C57.8803 26.8267 57.2351 25.6852 56.4836 24.6155L53.4757 25.6484C53.1712 25.2631 52.8531 24.8912 52.5167 24.5404L53.9589 21.6901C53.014 20.7892 51.9831 19.9842 50.8813 19.2868L48.4937 21.4008C48.068 21.1636 47.6325 20.9444 47.1873 20.7433L47.4319 17.5533C46.2172 17.0825 44.9588 16.7348 43.6755 16.5154L42.3532 19.224L42.2737 19.3841C41.8028 19.3274 41.327 19.2917 40.8499 19.2794L40.7778 19.1563L39.8322 16.231C39.4066 16.2416 38.9805 16.2675 38.554 16.3085L38.3815 16.3245C37.7838 16.3861 37.1848 16.4756 36.5846 16.593C36.3804 16.6336 36.1749 16.6767 35.9731 16.7247L35.7712 19.9197C35.5364 19.9849 35.3052 20.0563 35.0728 20.1351C34.8404 20.2139 34.6104 20.2952 34.3841 20.3814L32.3194 17.9473C31.1297 18.4786 29.9955 19.1277 28.9336 19.8852L29.9598 22.9115C29.5757 23.2168 29.2076 23.5406 28.859 23.878L26.0187 22.4288C25.1232 23.3799 24.3231 24.4175 23.6298 25.5265L25.73 27.9298C25.4952 28.3595 25.2762 28.7917 25.0768 29.2448L21.9063 28.9985C21.4396 30.2205 21.0935 31.4857 20.8727 32.7759L23.7252 34.1856C23.6677 34.6781 23.6335 35.1607 23.62 35.6544C23.62 35.6987 23.62 35.7418 23.62 35.7861C23.68 35.8255 23.7423 35.8637 23.7998 35.9006C23.9564 33.8603 24.5518 31.8786 25.5448 30.0928C26.5378 28.3071 27.9048 26.7601 29.5508 25.5589C31.1969 24.3578 33.0828 23.5312 35.0778 23.1366C37.0727 22.742 39.1291 22.7887 41.1043 23.2734C41.5906 23.3932 42.07 23.5395 42.5404 23.7118L42.6529 23.7548C43.1541 23.9417 43.6442 24.1576 44.1207 24.4012C45.0141 24.8583 45.8563 25.4102 46.6332 26.0473C46.802 26.184 46.9671 26.3268 47.1286 26.4721C48.5382 27.735 49.6799 29.2715 50.4854 30.9892C51.2909 32.707 51.7435 34.5708 51.8162 36.4689C51.8889 38.367 51.58 40.2603 50.9082 42.0354C50.2365 43.8104 49.2155 45.4307 47.9066 46.7991C46.5978 48.1674 45.0279 49.2557 43.2911 49.9987C41.5543 50.7417 39.6864 51.1241 37.7992 51.1229C35.9121 51.1218 34.0446 50.7372 32.3087 49.9921C30.5728 49.247 29.0042 48.1569 27.6969 46.7869H27.3997C27.6549 47.1005 27.9208 47.4038 28.1972 47.6968L26.7563 50.547C27.7 51.4489 28.7305 52.254 29.8326 52.9503L32.2203 50.8363C32.646 51.074 33.0826 51.2943 33.5279 51.4938L33.2771 54.6851C34.4924 55.1544 35.7506 55.5021 37.0336 55.723L38.4366 52.8531C38.9185 52.9097 39.4053 52.9454 39.8958 52.9565L40.8744 56C42.1751 55.9666 43.4693 55.8017 44.7372 55.5075L44.9391 52.315C45.1739 52.2485 45.4051 52.1759 45.6375 52.0971C45.8699 52.0183 46.0999 51.937 46.3262 51.8509L48.3946 54.2825C49.5845 53.7517 50.7187 53.1025 51.7804 52.3446L50.7541 49.317C51.1382 49.0117 51.5052 48.6895 51.855 48.3505L54.6867 49.8021C55.5836 48.8514 56.3851 47.8138 57.0793 46.7044L54.979 44.3011C55.2139 43.8727 55.4328 43.4393 55.6322 42.9862L58.8027 43.2386C59.2679 42.0147 59.6129 40.7479 59.8327 39.4564L56.9851 38.0405C57.0421 37.557 57.0772 37.0691 57.0903 36.5766ZM45.4699 30.7628C45.7014 29.5845 45.8165 28.3861 45.8136 27.185L43.0186 26.3601C42.9991 26.0006 42.966 25.6435 42.922 25.2877C42.8547 25.2569 42.7875 25.2261 42.719 25.199C42.8717 27.5089 42.4055 29.8177 41.3689 31.8843C40.3323 33.9508 38.7635 35.6993 36.8262 36.947C34.8889 38.1947 32.6543 38.896 30.3557 38.9774C28.0572 39.0589 25.7791 38.5176 23.7595 37.4101L23.6579 37.3547C21.9747 36.418 20.5237 35.1102 19.4135 33.5293C17.6793 31.0751 16.8503 28.0887 17.0694 25.0852C17.2885 22.0816 18.542 19.2491 20.6137 17.0762C22.6854 14.9032 25.4454 13.526 28.4179 13.182C31.3904 12.838 34.389 13.5488 36.8966 15.1918C37.0189 15.1721 37.1302 15.1537 37.2488 15.1364C37.1265 15.0404 37.0128 14.9481 36.8917 14.8582L37.7479 12.056C36.755 11.3901 35.6987 10.8254 34.5945 10.3705L32.7671 12.6543C32.3447 12.5066 31.9169 12.3769 31.4839 12.2653L31.2148 9.34487C30.0439 9.111 28.8527 8.99551 27.659 9.00013L26.837 11.8159C26.3906 11.8393 25.9441 11.8824 25.5013 11.9489L24.1411 9.35349C22.9713 9.59049 21.8278 9.94352 20.7272 10.4074L21.0415 13.3253C20.8397 13.4214 20.6415 13.5223 20.4434 13.6294C20.2452 13.7366 20.052 13.8461 19.8611 13.9619L17.6178 12.088C16.6261 12.7562 15.7022 13.5212 14.8595 14.3719L16.2576 16.9438C15.9575 17.2812 15.6746 17.6304 15.4087 17.9916L12.626 17.1298C11.9645 18.1294 11.4031 19.1926 10.9502 20.3038L13.2204 22.1432C13.0736 22.5684 12.9448 22.9985 12.8339 23.4335L9.93249 23.7068C9.70094 24.8826 9.5854 26.0786 9.58755 27.2773L12.3838 28.1034C12.4082 28.5516 12.4527 28.9998 12.5171 29.4479L9.93983 30.8182C10.1759 31.9955 10.5266 33.1465 10.9869 34.2545L13.8858 33.9406C13.9825 34.1413 14.0816 34.3419 14.1892 34.5402C14.2968 34.7384 14.4045 34.9341 14.5182 35.1262L12.6578 37.3855C13.3216 38.3834 14.0816 39.3129 14.9268 40.1606L17.482 38.7546C17.8172 39.055 18.1642 39.3394 18.523 39.6078L17.6667 42.41C18.6606 43.0754 19.7172 43.6404 20.8214 44.0968L22.6476 41.8116C22.8531 41.8831 23.0598 41.9495 23.2665 42.0136C23.4732 42.0776 23.7081 42.1367 23.9307 42.1995L24.0971 43.9983L24.201 45.1211C24.3808 45.1568 24.5594 45.1901 24.738 45.2184C25.2897 45.3119 25.8475 45.3772 26.4065 45.4191L26.552 45.4277C26.952 45.4548 27.3532 45.4683 27.7556 45.4658L27.8939 44.9918L28.5764 42.6525C29.0204 42.6292 29.4669 42.5848 29.9109 42.5196L31.2699 45.1113C32.4395 44.8758 33.5827 44.5231 34.6826 44.0586L34.3707 41.1406C34.5713 41.0446 34.7682 40.9424 34.9676 40.8365C35.167 40.7306 35.359 40.6186 35.5498 40.5029L37.7944 42.3768C38.7864 41.7103 39.7096 40.9456 40.5502 40.0941L39.1534 37.5209C39.4543 37.1836 39.7356 36.8351 40.0023 36.4744L42.785 37.3362C43.446 36.3367 44.0073 35.274 44.4608 34.1634L42.1905 32.3228C42.3373 31.8976 42.4658 31.4675 42.5758 31.0325L45.4699 30.7628ZM6.46351 29.7114C5.97622 29.7114 5.49988 29.8569 5.09473 30.1294C4.68958 30.4019 4.37383 30.7892 4.18741 31.2424C4.00099 31.6956 3.95227 32.1942 4.04743 32.6752C4.14258 33.1563 4.37733 33.5981 4.72198 33.9448C5.06663 34.2916 5.5057 34.5276 5.98366 34.6232C6.46161 34.7187 6.95698 34.6694 7.40711 34.4816C7.85723 34.2937 8.24189 33.9757 8.51244 33.5678C8.78299 33.1598 8.92727 32.6803 8.92702 32.1898C8.9267 31.5324 8.66701 30.902 8.20505 30.4372C7.74308 29.9725 7.11666 29.7114 6.46351 29.7114Z" fill="white"/>
</svg>
