<svg width="52" height="52" viewBox="0 0 52 52" fill="none" xmlns="http://www.w3.org/2000/svg">
<rect width="52" height="52" rx="26" fill="#E3E3E3"/>
<g clip-path="url(#clip0_41_610)">
<rect x="8" y="8" width="36" height="36" rx="18" fill="#2179C8"/>
<path d="M29.434 16.5607C28.8482 15.9749 27.8984 15.9749 27.3126 16.5607L19.9815 23.899C18.8109 25.0708 18.8114 26.9695 19.9824 28.1407L27.318 35.4761C27.9038 36.062 28.8536 36.062 29.4394 35.4761C30.0252 34.8904 30.0252 33.9406 29.4394 33.3548L23.1609 27.0764C22.575 26.4907 22.5752 25.5409 23.1609 24.9551L29.434 18.682C30.0198 18.0962 30.0198 17.1465 29.434 16.5607Z" fill="#DFDFDF"/>
</g>
<defs>
<clipPath id="clip0_41_610">
<rect x="8" y="8" width="36" height="36" rx="18" fill="white"/>
</clipPath>
</defs>
</svg>
