<svg width="800" height="800" viewBox="0 0 800 800" fill="none" xmlns="http://www.w3.org/2000/svg">
<g clip-path="url(#clip0_382_1355)">
<rect y="152" width="800" height="496" rx="81" fill="#EBABB1"/>
<path d="M645.715 648.17H73.808C33.1079 648.17 0 615.058 0 574.359V225.638C0 184.94 33.1079 151.829 73.808 151.829H726.194C766.892 151.829 800.002 184.94 800.002 225.638V480.551C800.002 492.723 790.131 502.592 777.961 502.592C765.789 502.592 755.92 492.721 755.92 480.551V225.638C755.92 209.246 742.586 195.912 726.195 195.912H73.808C57.4189 195.91 44.0829 209.246 44.0829 225.638V574.361C44.0829 590.753 57.4173 604.087 73.808 604.087H645.715C657.887 604.087 667.756 613.958 667.756 626.128C667.756 638.301 657.886 648.17 645.715 648.17Z" fill="#B3404A"/>
<path d="M713.561 577.392C707.918 577.392 702.279 575.239 697.975 570.936L623.162 496.126C614.554 487.518 614.554 473.562 623.162 464.953C631.771 456.348 645.723 456.348 654.335 464.953L729.148 539.762C737.756 548.37 737.756 562.326 729.148 570.936C724.84 575.24 719.203 577.392 713.561 577.392Z" fill="#B3404A"/>
<path d="M585.57 523.252C638.52 523.252 681.445 480.328 681.445 427.377C681.445 374.427 638.52 331.502 585.57 331.502C532.619 331.502 489.694 374.427 489.694 427.377C489.694 480.328 532.619 523.252 585.57 523.252Z" fill="#EBABB1"/>
<path d="M585.578 545.284C554.081 545.284 524.468 533.02 502.198 510.748C479.928 488.476 467.662 458.865 467.662 427.369C467.662 395.873 479.926 366.26 502.198 343.99C524.47 321.719 554.081 309.454 585.578 309.454C617.075 309.454 646.687 321.718 668.958 343.99C714.931 389.963 714.931 464.773 668.958 510.746C646.686 533.021 617.075 545.284 585.578 545.284ZM585.578 353.537C565.858 353.537 547.317 361.216 533.368 375.163C519.423 389.107 511.742 407.648 511.742 427.373C511.742 447.093 519.422 465.634 533.368 479.579C547.314 493.524 565.854 501.206 585.578 501.206C605.3 501.206 623.839 493.526 637.787 479.579C666.575 450.791 666.575 403.951 637.787 375.165C623.839 361.216 605.298 353.537 585.578 353.537Z" fill="#B3404A"/>
<path d="M401.054 496.31H143.171C130.999 496.31 121.13 486.44 121.13 474.27C121.13 462.098 131 452.229 143.171 452.229H401.052C413.224 452.229 423.093 462.099 423.093 474.27C423.095 486.442 413.227 496.31 401.054 496.31Z" fill="#B3404A"/>
<path d="M400.924 422.081H143.041C130.869 422.081 121 412.211 121 400.041C121 387.869 130.87 378 143.041 378H400.922C413.094 378 422.963 387.87 422.963 400.041C422.965 412.213 413.097 422.081 400.924 422.081Z" fill="#B3404A"/>
<path d="M310.111 353H135.89C127.667 353 121 343.148 121 331C121 318.851 127.668 309 135.89 309H310.11C318.333 309 325 318.852 325 331C325.001 343.149 318.335 353 310.111 353Z" fill="#B3404A"/>
</g>
<defs>
<clipPath id="clip0_382_1355">
<rect width="800" height="800" fill="white"/>
</clipPath>
</defs>
</svg>
