<svg width="28" height="28" viewBox="0 0 28 28" fill="none" xmlns="http://www.w3.org/2000/svg">
<path fill-rule="evenodd" clip-rule="evenodd" d="M1.82593 20.822L0.0799561 26.676C-0.0180664 27.003 0.05896 27.358 0.282959 27.616C0.506958 27.875 0.846985 28.001 1.18494 27.951L8.56494 26.856C10.24 27.567 12.084 27.962 14.019 27.962C21.735 27.962 28 21.697 28 13.981C28 6.26501 21.735 0 14.019 0C6.30298 0 0.0379639 6.26501 0.0379639 13.981C0.0379639 16.465 0.687988 18.799 1.82593 20.822ZM5 11C5 10.4477 5.44769 10 6 10H22C22.5523 10 23 10.4477 23 11C23 11.5523 22.5523 12 22 12H6C5.44769 12 5 11.5523 5 11ZM6 16C5.44769 16 5 16.4477 5 17C5 17.5523 5.44769 18 6 18H16C16.5523 18 17 17.5523 17 17C17 16.4477 16.5523 16 16 16H6Z" fill="#2179c8"/>
</svg>
