<svg width="22" height="28" viewBox="0 0 22 28" fill="none" xmlns="http://www.w3.org/2000/svg">
<path fill-rule="evenodd" clip-rule="evenodd" d="M19 10.5792V23.0012H3V10.5792C3 6.39565 6.584 3.00027 11 3.00027C15.416 3.00027 19 6.39565 19 10.5792Z" fill="white"/>
<path fill-rule="evenodd" clip-rule="evenodd" d="M14 24C14 25.656 12.656 27 11 27C9.344 27 8 25.656 8 24" fill="white"/>
<path fill-rule="evenodd" clip-rule="evenodd" d="M10 2.052C5.491 2.528 2 6.18 2 10.579V22H1C0.448 22 0 22.448 0 23C0 23.552 0.448 24 1 24H7V24.013C7.001 24.217 7.017 24.42 7.048 24.621C7.098 24.942 7.188 25.257 7.315 25.556C7.507 26.012 7.78601 26.43 8.13 26.785C8.46301 27.128 8.85699 27.411 9.28799 27.616C9.65999 27.792 10.058 27.91 10.466 27.965C10.903 28.023 11.349 28.009 11.781 27.924C12.154 27.85 12.516 27.722 12.853 27.545C13.251 27.337 13.613 27.061 13.92 26.733C14.222 26.41 14.47 26.038 14.651 25.634C14.793 25.32 14.893 24.987 14.948 24.646C14.982 24.437 14.999 24.225 15 24.013V24H21C21.552 24 22 23.552 22 23C22 22.448 21.552 22 21 22H20V10.579C20 6.18 16.509 2.528 12 2.052V1C12 0.448 11.552 0 11 0C10.448 0 10 0.448 10 1V2.052ZM9 24C9 25.104 9.896 26 11 26C12.104 26 13 25.104 13 24H9ZM18 22H4V10.579C4 6.933 7.151 4 11 4C14.849 4 18 6.933 18 10.579V22Z" fill="white"/>
</svg>
