<svg width="32" height="32" viewBox="0 0 32 32" fill="none" xmlns="http://www.w3.org/2000/svg">
<path d="M16 15C19.3137 15 22 12.0899 22 8.5C22 4.91015 19.3137 2 16 2C12.6863 2 10 4.91015 10 8.5C10 12.0899 12.6863 15 16 15Z" fill="#2179c8"/>
<path d="M16 29.9999C21.5228 29.9999 26 27.5126 26 24.4443C26 21.3761 21.5228 18.8888 16 18.8888C10.4772 18.8888 6 21.3761 6 24.4443C6 27.5126 10.4772 29.9999 16 29.9999Z" fill="#2179c8"/>
<path fill-rule="evenodd" clip-rule="evenodd" d="M16 17.889C12.437 17.889 9.285 18.883 7.327 20.367C5.83 21.501 5 22.932 5 24.444C5 25.957 5.83 27.388 7.327 28.522C9.285 30.006 12.437 31 16 31C19.563 31 22.715 30.006 24.673 28.522C26.17 27.388 27 25.957 27 24.444C27 22.932 26.17 21.501 24.673 20.367C22.715 18.883 19.563 17.889 16 17.889ZM16 19.889C19.06 19.889 21.783 20.687 23.466 21.961C24.396 22.667 25 23.504 25 24.444C25 25.385 24.396 26.222 23.466 26.928C21.783 28.202 19.06 29 16 29C12.94 29 10.217 28.202 8.534 26.928C7.604 26.222 7 25.385 7 24.444C7 23.504 7.604 22.667 8.534 21.961C10.217 20.687 12.94 19.889 16 19.889ZM16 1C12.159 1 9 4.339 9 8.5C9 12.661 12.159 16 16 16C19.841 16 23 12.661 23 8.5C23 4.339 19.841 1 16 1ZM16 3C18.783 3 21 5.486 21 8.5C21 11.514 18.783 14 16 14C13.217 14 11 11.514 11 8.5C11 5.486 13.217 3 16 3Z" fill="#2179c8"/>
</svg>
