<svg width="307" height="307" viewBox="0 0 307 307" fill="none" xmlns="http://www.w3.org/2000/svg">
<g clip-path="url(#clip0_8_718)">
<path d="M306.407 165.851C306.733 161.761 306.909 157.624 306.909 153.452C306.909 149.651 306.764 145.882 306.495 142.154L288.042 137.94C287.235 130.846 285.88 123.918 284.019 117.201L299.541 106.358C297.1 98.7784 294.086 91.4568 290.549 84.4456L271.878 87.6203C268.435 81.4415 264.531 75.5574 260.198 70.0249L270.379 54.0789C265.25 48.0552 259.671 42.4244 253.683 37.2539L237.654 47.3261C232.153 42.9518 226.3 39.0015 220.147 35.5166L223.456 16.8612C216.465 13.2728 209.165 10.2119 201.605 7.71447L190.654 23.1486C183.948 21.2407 177.03 19.8394 169.941 18.9759L165.861 0.496374C161.761 0.170628 157.63 0 153.452 0C149.651 0 145.882 0.144776 142.154 0.413645L137.94 18.8674C130.846 19.674 123.918 21.0287 117.201 22.8901L106.358 7.37322C98.7784 9.81372 91.4568 12.8282 84.4456 16.3648L87.6203 35.0357C81.4415 38.4793 75.5574 42.3831 70.0249 46.716L54.0789 36.5352C48.0552 41.6644 42.4244 47.2434 37.2539 53.2309L47.3261 69.2596C42.9518 74.7611 39.0015 80.6142 35.5166 86.7671L16.8612 83.458C13.2728 90.4486 10.2119 97.7494 7.71447 105.309L23.1486 116.26C21.2407 122.966 19.8394 129.884 18.9759 136.973L0.501544 141.053C0.170628 145.143 0 149.279 0 153.452C0 157.252 0.144776 161.022 0.413645 164.75L18.8674 168.964C19.674 176.058 21.0287 182.986 22.8901 189.703L7.36805 200.545C9.80855 208.125 12.823 215.447 16.3596 222.458L35.0305 219.283C38.4741 225.462 42.3779 231.346 46.7108 236.879L36.53 252.825C41.6592 258.849 47.2382 264.479 53.2257 269.65L69.2545 259.578C74.7559 263.952 80.609 267.902 86.762 271.387L83.4528 290.043C90.4434 293.631 97.7442 296.692 105.304 299.189L116.255 283.755C122.961 285.663 129.879 287.064 136.968 287.928L141.048 306.407C145.138 306.733 149.274 306.909 153.447 306.909C157.247 306.909 161.016 306.764 164.744 306.495L168.958 288.042C176.052 287.235 182.981 285.88 189.697 284.019L200.54 299.541C208.12 297.1 215.442 294.086 222.453 290.549L219.278 271.878C225.457 268.435 231.341 264.531 236.874 260.198L252.82 270.379C258.843 265.25 264.474 259.671 269.645 253.683L259.572 237.654C263.947 232.148 267.897 226.3 271.382 220.147L290.037 223.456C293.626 216.465 296.687 209.165 299.184 201.605L283.75 190.654C285.658 183.948 287.059 177.03 287.923 169.941L306.407 165.851Z" fill="#FF5400"/>
</g>
<defs>
<clipPath id="clip0_8_718">
<rect width="306.904" height="306.904" fill="white"/>
</clipPath>
</defs>
</svg>
